HIERARCHY
ROOT Hips
{
  OFFSET 52.8871 84.4027 8.12198
  CHANNELS 6 Xposition Yposition Zposition Zrotation Xrotation Yrotation
  JOINT spine
  {
    OFFSET 0 5.95438 0.342407
    CHANNELS 3 Zrotation Xrotation Yrotation
    JOINT spine1
    {
      OFFSET 0 8.85602 0
      CHANNELS 3 Zrotation Xrotation Yrotation
      JOINT spine2
      {
        OFFSET 0 8.48567 0
        CHANNELS 3 Zrotation Xrotation Yrotation
        JOINT Neck
        {
          OFFSET 0 21.7863 1.0387
          CHANNELS 3 Zrotation Xrotation Yrotation
          JOINT Head
          {
            OFFSET 0 6.5822 0
            CHANNELS 3 Zrotation Xrotation Yrotation
            End Site
            {
              OFFSET 0 15.9326 -5.25436
            }
          }
        }
        JOINT RightShoulder
        {
          OFFSET -3.57307 9.16386 -0.497525
          CHANNELS 3 Zrotation Xrotation Yrotation
          JOINT RightArm
          {
            OFFSET 0 12.0192 0
            CHANNELS 3 Zrotation Xrotation Yrotation
            JOINT RightArmRoll
            {
              OFFSET 0 6.06755 0
              CHANNELS 3 Zrotation Xrotation Yrotation
              JOINT RightForeArm
              {
                OFFSET 0 17.6726 0
                CHANNELS 3 Zrotation Xrotation Yrotation
                JOINT RightForeArmRoll
                {
                  OFFSET 0 6.80872 0
                  CHANNELS 3 Zrotation Xrotation Yrotation
                  JOINT RightHand
                  {
                    OFFSET 0 13.6636 0
                    CHANNELS 3 Zrotation Xrotation Yrotation
                    End Site
                    {
                      OFFSET 0 0 0
                    }
                  }
                }
              }
            }
          }
        }
        JOINT LeftShoulder
        {
          OFFSET 3.57307 9.16386 -0.497525
          CHANNELS 3 Zrotation Xrotation Yrotation
          JOINT LeftArm
          {
            OFFSET 0 12.0192 0
            CHANNELS 3 Zrotation Xrotation Yrotation
            JOINT LeftArmRoll
            {
              OFFSET 0 6.06755 0
              CHANNELS 3 Zrotation Xrotation Yrotation
              JOINT LeftForeArm
              {
                OFFSET 0 17.6726 0
                CHANNELS 3 Zrotation Xrotation Yrotation
                JOINT LeftForeArmRoll
                {
                  OFFSET 0 6.80872 0
                  CHANNELS 3 Zrotation Xrotation Yrotation
                  JOINT LeftHand
                  {
                    OFFSET 0 13.6636 0
                    CHANNELS 3 Zrotation Xrotation Yrotation
                    End Site
                    {
                      OFFSET 0 0 0
                    }
                  }
                }
              }
            }
          }
        }
      }
    }
  }
  JOINT RightUpLeg
  {
    OFFSET -5.27774 -0.967797 -0.811858
    CHANNELS 3 Zrotation Xrotation Yrotation
    JOINT RightUpLegRoll
    {
      OFFSET 0 16.0214 0
      CHANNELS 3 Zrotation Xrotation Yrotation
      JOINT RightLeg
      {
        OFFSET 0 -19.8401 0
        CHANNELS 3 Zrotation Xrotation Yrotation
        JOINT RightLegRoll
        {
          OFFSET 0 19.905 0
          CHANNELS 3 Zrotation Xrotation Yrotation
          JOINT RightFoot
          {
            OFFSET 0 16.5675 0
            CHANNELS 3 Zrotation Xrotation Yrotation
            JOINT RightToeBase
            {
              OFFSET 0 13.8496 0
              CHANNELS 3 Zrotation Xrotation Yrotation
              End Site
              {
                OFFSET 0.00587034 6.70728 -0.773117
              }
            }
          }
        }
      }
    }
  }
  JOINT LeftUpLeg
  {
    OFFSET 5.27774 -0.967797 -0.811858
    CHANNELS 3 Zrotation Xrotation Yrotation
    JOINT LeftUpLegRoll
    {
      OFFSET 0 16.0215 0
      CHANNELS 3 Zrotation Xrotation Yrotation
      JOINT LeftLeg
      {
        OFFSET 0 19.84 0
        CHANNELS 3 Zrotation Xrotation Yrotation
        JOINT LeftLegRoll
        {
          OFFSET 0 20.089 0
          CHANNELS 3 Zrotation Xrotation Yrotation
          JOINT LeftFoot
          {
            OFFSET 0 16.3835 0
            CHANNELS 3 Zrotation Xrotation Yrotation
            JOINT LeftToeBase
            {
              OFFSET 0 13.8496 0
              CHANNELS 3 Zrotation Xrotation Yrotation
              End Site
              {
                OFFSET -0.0263083 6.70728 -0.773116
              }
            }
          }
        }
      }
    }
  }
}
MOTION
Frames: 8
Frame Time: 0.00208333
51.9313 84.3131 5.46429 -1.15288 -11.1323 -4.06336 0.433776 0.16527 0.117374 0.870159 4.33482 0.181512 0.869399 5.97979 0.161603 -8.95596 14.8206 0.3297 13.2682 -0.330543 -1.71021 71.833 2.05688 -0.472942 109.052 14.9125 -8.91736 3.15848e-006 6.21163e-007 1.89028e-006 -3.64047 -0.0275611 -1.99238 7.49416e-006 -1.95032e-007 -3.01161 8.03008 -4.95138 0.697625 -63.9333 -2.27859 1.82889 -120.171 16.4316 18.9422 -9.4337e-008 2.58898e-006 2.0073e-006 3.64353 -0.0277119 1.99242 9.87291e-006 -6.21144e-007 3.0116 -8.03008 -4.95139 -0.697628 -179.578 -4.38915 3.33469 180 7.01522e-015 178.82 177.242 10.1352 179.899 1.83322e-006 1.71987e-006 0.14531 -19.3744 68.912 20.3509 8.1365 25.2327 -3.48774 179.721 -5.59675 -0.135228 4.54188e-006 -4.6773e-006 -1.20288 -2.32984 -11.1389 0.0745933 -1.12461e-006 -6.64692e-007 -0.194281 20.2414 69.9878 -21.3273 -8.13649 25.2327 3.48774 
51.9269 84.3114 5.46656 -1.14992 -11.1113 -4.04197 0.433096 0.161013 0.117407 0.867831 4.32733 0.181798 0.867062 5.97229 0.161956 -8.93476 14.8264 0.313291 13.2687 -0.338616 -1.71852 71.8464 2.04122 -0.482091 109.046 14.9265 -8.91651 3.15848e-006 6.21163e-007 1.89028e-006 -3.64047 -0.0275611 -1.99238 7.49416e-006 -1.95032e-007 -3.01161 8.03008 -4.95138 0.697625 -63.9069 -2.25438 1.81264 -120.201 16.4329 18.9728 -9.43369e-008 2.58898e-006 2.0073e-006 3.64353 -0.0277119 1.99242 9.87291e-006 -6.21144e-007 3.0116 -8.03008 -4.95139 -0.697628 -179.581 -4.37144 3.33573 180 7.01522e-015 178.82 177.236 10.1304 179.899 1.83322e-006 1.71987e-006 0.14531 -19.375 68.9126 20.3515 8.1365 25.2327 -3.48774 179.73 -5.55668 -0.144196 4.54188e-006 -4.6773e-006 -1.20288 -2.34097 -11.1575 0.0735498 -1.12461e-006 -6.64692e-007 -0.194281 20.2332 69.9798 -21.3187 -8.13649 25.2327 3.48774 
51.93 84.3158 5.44611 -1.14687 -11.0895 -4.01947 0.432412 0.156622 0.117442 0.865433 4.31963 0.182092 0.864656 5.9646 0.162319 -8.91127 14.8311 0.295709 13.2679 -0.345878 -1.72731 71.8603 2.02389 -0.492109 109.041 14.9407 -8.91585 3.15848e-006 6.21163e-007 1.89028e-006 -3.64047 -0.0275611 -1.99238 7.49416e-006 -1.95032e-007 -3.01161 8.03008 -4.95138 0.697625 -63.8782 -2.2291 1.79558 -120.234 16.4337 19.0054 -9.4337e-008 2.58898e-006 2.0073e-006 3.64353 -0.0277119 1.99242 9.87291e-006 -6.21144e-007 3.0116 -8.03008 -4.95139 -0.697628 -179.583 -4.35307 3.33675 180 7.01522e-015 178.82 177.23 10.1254 179.9 1.83322e-006 1.71987e-006 0.14531 -19.3755 68.9132 20.3521 8.1365 25.2327 -3.48774 179.738 -5.51433 -0.153699 4.54188e-006 -4.6773e-006 -1.20288 -2.35267 -11.1774 0.0724412 -1.12461e-006 -6.64692e-007 -0.194281 20.2244 69.9711 -21.3093 -8.13649 25.2327 3.48774 
51.9339 84.3163 5.44729 -1.14377 -11.0671 -3.9962 0.431725 0.152138 0.117477 0.862987 4.3118 0.182391 0.862201 5.95677 0.162689 -8.88617 14.8352 0.277307 13.2662 -0.352571 -1.73644 71.8746 2.00539 -0.502734 109.035 14.9552 -8.91531 3.15848e-006 6.21163e-007 1.89028e-006 -3.64047 -0.0275611 -1.99238 7.49416e-006 -1.95032e-007 -3.01161 8.03008 -4.95138 0.697625 -63.8479 -2.20307 1.77795 -120.269 16.4342 19.0394 -9.43369e-008 2.58898e-006 2.0073e-006 3.64353 -0.0277119 1.99242 9.87291e-006 -6.21144e-007 3.0116 -8.03008 -4.95139 -0.697628 -179.585 -4.33425 3.33776 180 7.01522e-015 178.82 177.224 10.1202 179.9 1.83322e-006 1.71987e-006 0.14531 -19.3761 68.9139 20.3527 8.1365 25.2327 -3.48774 179.747 -5.47037 -0.163576 4.54188e-006 -4.6773e-006 -1.20288 -2.36477 -11.1984 0.0712872 -1.12461e-006 -6.64692e-007 -0.194281 20.2151 69.9618 -21.2994 -8.13649 25.2327 3.48774 
51.9308 84.32 5.44706 -1.14064 -11.0444 -3.97249 0.431035 0.147599 0.117513 0.860513 4.30389 0.182694 0.859719 5.94885 0.163063 -8.86016 14.8387 0.258435 13.2641 -0.35894 -1.74577 71.8892 1.98622 -0.513707 109.03 14.9697 -8.91484 3.15848e-006 6.21163e-007 1.89028e-006 -3.64047 -0.0275611 -1.99238 7.49416e-006 -1.95032e-007 -3.01161 8.03008 -4.95138 0.697625 -63.8167 -2.17662 1.75998 -120.305 16.4344 19.0743 -9.4337e-008 2.58898e-006 2.0073e-006 3.64353 -0.0277119 1.99242 9.87291e-006 -6.21144e-007 3.0116 -8.03008 -4.95139 -0.697628 -179.588 -4.31517 3.33876 180 7.01522e-015 178.82 177.217 10.115 179.9 1.83322e-006 1.71987e-006 0.14531 -19.3767 68.9145 20.3533 8.1365 25.2327 -3.48774 179.756 -5.4255 -0.173665 4.54188e-006 -4.6773e-006 -1.20288 -2.3771 -11.2199 0.070107 -1.12461e-006 -6.64692e-007 -0.194281 20.2055 69.9524 -21.2893 -8.13649 25.2327 3.48774 
51.9291 84.3168 5.45051 -1.13753 -11.0216 -3.94868 0.430345 0.143048 0.117549 0.858033 4.29595 0.182998 0.85723 5.94092 0.163438 -8.83391 14.8422 0.239445 13.2618 -0.365227 -1.75515 71.9038 1.96688 -0.524766 109.025 14.9843 -8.9144 3.15848e-006 6.21163e-007 1.89028e-006 -3.64047 -0.0275611 -1.99238 7.49416e-006 -1.95032e-007 -3.01161 8.03008 -4.95138 0.697625 -63.7853 -2.15006 1.74194 -120.341 16.4345 19.1093 -9.4337e-008 2.58898e-006 2.0073e-006 3.64353 -0.0277119 1.99242 9.87291e-006 -6.21144e-007 3.0116 -8.03008 -4.95139 -0.697628 -179.59 -4.29602 3.33976 180 7.01522e-015 178.82 177.211 10.1097 179.901 1.83322e-006 1.71987e-006 0.14531 -19.3773 68.9151 20.3539 8.1365 25.2327 -3.48774 179.766 -5.38039 -0.183807 4.54188e-006 -4.6773e-006 -1.20287 -2.38948 -11.2415 0.0689202 -1.12461e-006 -6.64692e-007 -0.194281 20.1959 69.9428 -21.2791 -8.13649 25.2327 3.48774 
51.9414 84.3156 5.44304 -1.13445 -10.999 -3.92509 0.429656 0.138523 0.117584 0.855567 4.28806 0.1833 0.854755 5.93303 0.163811 -8.80812 14.8459 0.220689 13.2597 -0.371677 -1.76443 71.9183 1.94788 -0.535651 109.019 14.9988 -8.91391 3.15848e-006 6.21163e-007 1.89028e-006 -3.64047 -0.0275611 -1.99238 7.49416e-006 -1.95032e-007 -3.01161 8.03008 -4.95138 0.697625 -63.7543 -2.12371 1.72406 -120.376 16.4348 19.144 -9.4337e-008 2.58898e-006 2.0073e-006 3.64353 -0.0277119 1.99242 9.87291e-006 -6.21144e-007 3.0116 -8.03008 -4.95139 -0.697628 -179.592 -4.27701 3.34077 180 7.01522e-015 178.82 177.204 10.1045 179.901 1.83322e-006 1.71987e-006 0.14531 -19.3778 68.9158 20.3546 8.1365 25.2327 -3.48774 179.775 -5.33575 -0.19384 4.54188e-006 -4.6773e-006 -1.20287 -2.40175 -11.2629 0.0677462 -1.12461e-006 -6.64692e-007 -0.194281 20.1864 69.9334 -21.2691 -8.13649 25.2327 3.48774 
51.9423 84.3193 5.43699 -1.13144 -10.9767 -3.90206 0.42897 0.134065 0.117619 0.853135 4.28027 0.183598 0.852314 5.92523 0.164179 -8.78347 14.8501 0.202518 13.2583 -0.378532 -1.77347 71.9325 1.92971 -0.546102 109.014 15.0131 -8.91334 3.15848e-006 6.21163e-007 1.89028e-006 -3.64047 -0.0275611 -1.99238 7.49416e-006 -1.95032e-007 -3.01161 8.03008 -4.95138 0.697625 -63.7244 -2.09789 1.70659 -120.41 16.4353 19.1776 -9.4337e-008 2.58898e-006 2.0073e-006 3.64353 -0.0277119 1.99242 9.87291e-006 -6.21144e-007 3.0116 -8.03008 -4.95139 -0.697628 -179.595 -4.25832 3.34179 180 7.01522e-015 178.82 177.198 10.0993 179.901 1.83322e-006 1.71987e-006 0.14531 -19.3784 68.9164 20.3552 8.1365 25.2327 -3.48774 179.784 -5.29225 -0.203604 4.54188e-006 -4.6773e-006 -1.20287 -2.41374 -11.2835 0.0666045 -1.12461e-006 -6.64692e-007 -0.194281 20.1773 69.9243 -21.2594 -8.13649 25.2327 3.48774 
